<svg width="243" height="110" viewBox="0 0 243 110" fill="none" xmlns="http://www.w3.org/2000/svg">
<path d="M149.76 0H93.3101C87.6501 0 83.0601 3.99383 83.0601 8.91868V100.977C83.0601 105.902 87.6501 109.896 93.3101 109.896H149.76C155.42 109.896 160.01 105.902 160.01 100.977V8.91868C160.01 3.99383 155.42 0 149.76 0Z" fill="#9C58D2"/>
<path d="M66.8101 0H10.3501C4.6901 0 0.100098 3.99383 0.100098 8.91868V100.977C0.100098 105.902 4.6901 109.896 10.3501 109.896H66.8001C72.4601 109.896 77.0501 105.902 77.0501 100.977V8.91868C77.0601 3.99383 72.4701 0 66.8101 0Z" fill="#9C58D2"/>
<path d="M232.71 0.104492H176.26C170.6 0.104492 166.01 4.09832 166.01 9.02318V101.081C166.01 106.006 170.6 110 176.26 110H232.71C238.37 110 242.96 106.006 242.96 101.081V9.02318C242.96 4.09832 238.37 0.104492 232.71 0.104492Z" fill="#9C58D2"/>
<path d="M166 55.3652V101.081C166 106.006 170.59 110 176.25 110H232.7C238.36 110 242.95 106.006 242.95 101.081V55.3652H166Z" fill="#8F4CC4"/>
<path d="M83 55.3652V101.081C83 106.006 87.59 110 93.25 110H149.7C155.36 110 159.95 106.006 159.95 101.081V55.3652H83Z" fill="#8F4CC4"/>
<path d="M0 55.3652V101.081C0 106.006 4.59 110 10.25 110H66.7C72.36 110 76.95 106.006 76.95 101.081V55.3652H0Z" fill="#8F4CC4"/>
<path d="M199.8 59.0199H183.72V50.8757H199.8V36.7798H209.16V50.8757H225.24V59.0199H209.16V73.3246H199.8V59.0199Z" fill="white"/>
<path d="M38.8801 35.7355H25.0801V27.5913C28.8401 27.5913 31.8601 27.3128 34.1401 26.7559C36.4201 26.1991 38.2401 25.2767 39.6001 23.989C40.9601 22.7012 42.1601 20.8392 43.2001 18.4028H52.0801V91.4925H38.8801V35.7355Z" fill="white"/>
<path d="M96.7702 18.4028H113.82L121.42 70.7142H121.64L129.24 18.4028H146.29V91.4925H135V36.1532H134.78L126.09 91.4925H116.1L107.41 36.1532H107.19V91.4925H96.7603V18.4028H96.7702Z" fill="white"/>
</svg>
