<svg height="94" viewBox="0 0 93 36" fill="none" xmlns="http://www.w3.org/2000/svg">
<path d="M89.883 0.0341797H73.808C72.1962 0.0341797 70.8892 1.34125 70.8892 2.95302V33.0811C70.8892 34.6929 72.1962 36 73.808 36H89.883C91.4948 36 92.8018 34.6929 92.8018 33.0811V2.95302C92.8018 1.34125 91.4948 0.0341797 89.883 0.0341797Z" fill="#844AC7"/>
<path d="M66.259 0H50.184C48.5722 0 47.2651 1.30707 47.2651 2.91884V33.047C47.2651 34.6587 48.5722 35.9658 50.184 35.9658H66.259C67.8707 35.9658 69.1778 34.6587 69.1778 33.047V2.91884C69.1806 1.30707 67.8736 0 66.259 0Z" fill="#844AC7"/>
<path d="M42.6324 0H26.5546C24.9428 0 23.6357 1.30707 23.6357 2.91884V33.047C23.6357 34.6587 24.9428 35.9658 26.5546 35.9658H42.6296C44.2413 35.9658 45.5484 34.6587 45.5484 33.047V2.91884C45.5512 1.30707 44.2442 0 42.6324 0Z" fill="#844AC7"/>
<path d="M18.9938 0H2.91884C1.30707 0 0 1.30707 0 2.91884V33.047C0 34.6587 1.30707 35.9658 2.91884 35.9658H18.9938C20.6056 35.9658 21.9127 34.6587 21.9127 33.047V2.91884C21.9155 1.30707 20.6084 0 18.9938 0Z" fill="#844AC7"/>
<path d="M70.8862 18.1196V33.0812C70.8862 34.6929 72.1933 36 73.8051 36H89.88C91.4918 36 92.7989 34.6929 92.7989 33.0812V18.1196H70.8862Z" fill="#7949C3"/>
<path d="M47.251 18.1196V33.0812C47.251 34.6929 48.558 36 50.1698 36H66.2448C67.8566 36 69.1636 34.6929 69.1636 33.0812V18.1196H47.251Z" fill="#7949C3"/>
<path d="M23.6211 18.1196V33.0812C23.6211 34.6929 24.9282 36 26.5399 36H42.6149C44.2267 36 45.5338 34.6929 45.5338 33.0812V18.1196H23.6211Z" fill="#7949C3"/>
<path d="M0 18.1196V33.0812C0 34.6929 1.30707 36 2.91884 36H18.9938C20.6056 36 21.9127 34.6929 21.9127 33.0812V18.1196H0Z" fill="#7949C3"/>
<path d="M80.5116 19.3157H75.9326V16.6503H80.5116V12.0371H83.177V16.6503H87.7561V19.3157H83.177V23.9972H80.5116V19.3157Z" fill="white"/>
<path d="M53.8576 28.8182C52.878 27.7702 52.3882 26.2894 52.3882 24.3758V11.8006C52.3882 9.88699 52.878 8.40621 53.8576 7.35828C54.8372 6.31034 56.2496 5.78638 58.0949 5.78638C59.9401 5.78638 61.3526 6.31034 62.3322 7.35828C63.3118 8.40621 63.8016 9.88699 63.8016 11.8006V24.3758C63.8016 26.2894 63.3118 27.7702 62.3322 28.8182C61.3526 29.8661 59.9401 30.3901 58.0949 30.3901C56.2496 30.3901 54.8372 29.8661 53.8576 28.8182ZM60.0427 24.615V11.5614C60.0427 9.98951 59.3934 9.20356 58.0949 9.20356C56.7963 9.20356 56.1471 9.98951 56.1471 11.5614V24.615C56.1471 26.1869 56.7963 26.9729 58.0949 26.9729C59.3934 26.9729 60.0427 26.1869 60.0427 24.615Z" fill="white"/>
<path d="M30.2306 28.8182C29.251 27.7702 28.7612 26.2894 28.7612 24.3758V11.8006C28.7612 9.88699 29.251 8.40621 30.2306 7.35828C31.2102 6.31034 32.6226 5.78638 34.4679 5.78638C36.3132 5.78638 37.7256 6.31034 38.7052 7.35828C39.6848 8.40621 40.1746 9.88699 40.1746 11.8006V24.3758C40.1746 26.2894 39.6848 27.7702 38.7052 28.8182C37.7256 29.8661 36.3132 30.3901 34.4679 30.3901C32.6226 30.3901 31.2074 29.8661 30.2306 28.8182ZM36.4157 24.615V11.5614C36.4157 9.98951 35.7664 9.20356 34.4679 9.20356C33.1694 9.20356 32.5201 9.98951 32.5201 11.5614V24.615C32.5201 26.1869 33.1694 26.9729 34.4679 26.9729C35.7664 26.9729 36.4157 26.1869 36.4157 24.615Z" fill="white"/>
<path d="M11.043 11.6952H7.11328V9.02982C8.184 9.02982 9.04399 8.9387 9.69325 8.75645C10.3425 8.5742 10.8608 8.27235 11.2481 7.8509C11.6353 7.42944 11.9771 6.82005 12.2732 6.02271H14.8019V29.943H11.043V11.6952Z" fill="white"/>
</svg>
