<svg height="94" viewBox="0 0 93 36" fill="none" xmlns="http://www.w3.org/2000/svg">
<path d="M89.883 0.0341797H73.808C72.1962 0.0341797 70.8892 1.34125 70.8892 2.95302V33.0811C70.8892 34.6929 72.1962 36 73.808 36H89.883C91.4948 36 92.8018 34.6929 92.8018 33.0811V2.95302C92.8018 1.34125 91.4948 0.0341797 89.883 0.0341797Z" fill="#7249C1"/>
<path d="M66.259 0H50.184C48.5722 0 47.2651 1.30707 47.2651 2.91884V33.047C47.2651 34.6587 48.5722 35.9658 50.184 35.9658H66.259C67.8707 35.9658 69.1778 34.6587 69.1778 33.047V2.91884C69.1806 1.30707 67.8736 0 66.259 0Z" fill="#7249C1"/>
<path d="M42.6324 0H26.5546C24.9428 0 23.6357 1.30707 23.6357 2.91884V33.047C23.6357 34.6587 24.9428 35.9658 26.5546 35.9658H42.6296C44.2413 35.9658 45.5484 34.6587 45.5484 33.047V2.91884C45.5512 1.30707 44.2442 0 42.6324 0Z" fill="#7249C1"/>
<path d="M18.9938 0H2.91884C1.30707 0 0 1.30707 0 2.91884V33.047C0 34.6587 1.30707 35.9658 2.91884 35.9658H18.9938C20.6056 35.9658 21.9127 34.6587 21.9127 33.047V2.91884C21.9155 1.30707 20.6084 0 18.9938 0Z" fill="#7249C1"/>
<path d="M70.8867 18.1196V33.0812C70.8867 34.6929 72.1938 36 73.8056 36H89.8805C91.4923 36 92.7994 34.6929 92.7994 33.0812V18.1196H70.8867Z" fill="#5F48B9"/>
<path d="M47.251 18.1196V33.0812C47.251 34.6929 48.558 36 50.1698 36H66.2448C67.8566 36 69.1636 34.6929 69.1636 33.0812V18.1196H47.251Z" fill="#5F48B9"/>
<path d="M23.6211 18.1196V33.0812C23.6211 34.6929 24.9282 36 26.5399 36H42.6149C44.2267 36 45.5338 34.6929 45.5338 33.0812V18.1196H23.6211Z" fill="#5F48B9"/>
<path d="M0 18.1196V33.0812C0 34.6929 1.30707 36 2.91884 36H18.9938C20.6056 36 21.9127 34.6929 21.9127 33.0812V18.1196H0Z" fill="#5F48B9"/>
<path d="M5.53857 27.6166C5.53857 25.908 5.81195 24.4443 6.3587 23.2255C6.90545 22.0067 7.88504 20.6569 9.29747 19.1761C10.6871 17.6954 11.6496 16.431 12.185 15.3831C12.7203 14.3351 12.988 13.2416 12.988 12.1026C12.988 11.0774 12.8229 10.3655 12.4925 9.96684C12.1622 9.56817 11.6781 9.36884 11.0402 9.36884C9.7417 9.36884 9.09244 10.1548 9.09244 11.7267V14.2896H5.53857V11.9659C5.53857 10.0295 6.01698 8.54302 6.97379 7.50648C7.9306 6.46993 9.32025 5.95166 11.1427 5.95166C12.9652 5.95166 14.3549 6.46993 15.3117 7.50648C16.2685 8.54302 16.7469 10.0295 16.7469 11.9659C16.7469 13.4239 16.3995 14.8477 15.7047 16.2374C15.0099 17.627 13.8081 19.2217 12.0996 21.0214C10.9833 22.206 10.2315 23.1685 9.84422 23.9089C9.45694 24.6493 9.2633 25.441 9.2633 26.2839V26.7964H16.4052V30.2136H5.53857V27.6166Z" fill="white"/>
<path d="M35.2454 25.8736H28.0693V22.4565L34.9037 6.29321H39.0043V22.4565H40.7812V25.8736H39.0043V30.2135H35.2454V25.8736ZM35.2454 22.4565V13.1276H35.1771L31.4865 22.4565H35.2454Z" fill="white"/>
<path d="M61.2161 6.15942H64.4624L55.031 30.0797H51.7847L61.2161 6.15942Z" fill="white"/>
<path d="M84.0544 9.71039H76.4683V6.29321H87.745V9.5737L81.8674 30.2135H78.0402L84.0544 9.71039Z" fill="white"/>
</svg>
