<svg width="155" height="48" viewBox="0 0 155 48" fill="none" xmlns="http://www.w3.org/2000/svg">
<rect width="155" height="48" rx="6" fill="black"/>
<path fill-rule="evenodd" clip-rule="evenodd" d="M31.8555 7C32.0474 8.77449 31.356 10.5231 30.3454 11.8084C29.2908 13.0737 27.6038 14.0415 25.9607 13.9169C25.7457 12.2094 26.5782 10.3938 27.5102 9.28602C28.5635 8.02895 30.3928 7.06585 31.8555 7ZM37.2344 17.2364C37.051 17.3477 34.0122 19.1922 34.0455 22.9539C34.0848 27.4954 37.9537 28.9983 38 29.0147C37.9769 29.1206 37.3941 31.1831 35.943 33.2751C34.7312 35.1178 33.4616 36.9205 31.445 36.9523C30.4863 36.9747 29.8389 36.6946 29.1644 36.4028C28.4608 36.0983 27.7276 35.7811 26.5805 35.7811C25.3649 35.7811 24.5992 36.1086 23.8609 36.4244C23.2221 36.6977 22.6038 36.9622 21.7322 36.9982C19.8116 37.0699 18.3443 35.032 17.0886 33.2046C14.5783 29.4757 12.6241 22.6964 15.2443 18.0832C16.5139 15.8207 18.8288 14.3637 21.3032 14.3249C22.3929 14.3023 23.4379 14.7293 24.3541 15.1037C25.0547 15.39 25.6799 15.6455 26.192 15.6455C26.6418 15.6455 27.2494 15.4002 27.9577 15.1143C29.0738 14.6638 30.4397 14.1125 31.8312 14.2614C32.7828 14.2896 35.4909 14.6436 37.238 17.2342L37.2344 17.2364Z" fill="white"/>
<path fill-rule="evenodd" clip-rule="evenodd" d="M99.4153 35.2396C100.335 34.4046 100.798 33.323 100.798 31.9925C100.798 30.9133 100.482 30.0079 99.8476 29.2821C99.2178 28.5564 98.2339 27.9246 96.8948 27.382C95.8034 26.9499 95.0486 26.5471 94.6349 26.1772C94.1582 25.7755 93.9187 25.2635 93.9187 24.647C93.9187 24.088 94.129 23.6171 94.5438 23.2308C95.0369 22.7986 95.7263 22.5813 96.605 22.5813C97.7174 22.5813 98.7118 22.8209 99.5929 23.3L100.218 21.259C99.2821 20.7646 98.103 20.5168 96.688 20.5168C95.1035 20.5168 93.8299 20.9267 92.8693 21.7464C91.9088 22.5672 91.4274 23.6171 91.4274 24.8995C91.4274 26.863 92.7899 28.3556 95.5125 29.3761C96.5139 29.746 97.2267 30.1488 97.6578 30.581C98.0867 31.0143 98.3052 31.5463 98.3052 32.1816C98.3052 32.8909 98.0411 33.4593 97.5188 33.8844C96.9976 34.3083 96.2673 34.522 95.3279 34.522C94.0215 34.522 92.8214 34.1979 91.7289 33.5473L91.1528 35.6342C92.1647 36.2836 93.5062 36.6077 95.1795 36.6077C96.9906 36.6077 98.4034 36.1509 99.4153 35.2396ZM60.6305 36.3763H57.9769L56.5232 31.7858H51.4707L50.086 36.3763H47.5024L52.5095 20.7482H55.6013L60.6305 36.3763ZM56.0851 29.8599L54.7705 25.7791C54.6314 25.3622 54.3697 24.3804 53.9864 22.835H53.9397C53.7855 23.4997 53.5389 24.4814 53.2012 25.7791L51.9088 29.8599H56.0851ZM71.9275 35.1468C72.964 34.0347 73.4816 32.5198 73.4816 30.6033C73.4816 28.8876 73.0388 27.5042 72.1566 26.4508C71.2732 25.3998 70.169 24.8748 68.8462 24.8748C67.1542 24.8748 65.8934 25.5477 65.0626 26.8935H65.0159L64.8768 25.1073H62.6859C62.7467 26.3733 62.7782 27.6075 62.7782 28.8112V40.9457H65.2694V35.0329C65.918 36.0992 66.986 36.6312 68.4711 36.6312C69.8464 36.6312 70.9998 36.1368 71.9275 35.1468ZM70.9437 30.6949C70.9437 29.598 70.6983 28.6938 70.2052 27.981C69.6665 27.24 68.9432 26.8689 68.0364 26.8689C67.4218 26.8689 66.8633 27.0755 66.3643 27.483C65.8642 27.8941 65.537 28.4307 65.384 29.0954C65.3156 29.344 65.2768 29.5998 65.2683 29.8576V31.7377C65.2683 32.5562 65.5183 33.2479 66.0184 33.8139C66.5186 34.3776 67.1682 34.6606 67.9675 34.6606C68.9058 34.6606 69.6361 34.2954 70.1584 33.5708C70.6819 32.8439 70.9437 31.8857 70.9437 30.6949ZM84.8242 35.1468C85.8607 34.0347 86.3783 32.5198 86.3783 30.6033C86.3783 28.8876 85.9343 27.5042 85.0533 26.4508C84.1675 25.3998 83.0633 24.8748 81.7417 24.8748C80.0486 24.8748 78.7878 25.5477 77.9582 26.8935H77.9114L77.7724 25.1073H75.5814C75.6422 26.3733 75.6737 27.6075 75.6737 28.8112V40.9457H78.165V35.0329C78.8135 36.0992 79.8815 36.6312 81.3667 36.6312C82.7431 36.6312 83.8953 36.1368 84.8242 35.1468ZM83.8392 30.6949C83.8392 29.598 83.5926 28.6938 83.0995 27.981C82.5609 27.24 81.8399 26.8689 80.9331 26.8689C80.3185 26.8689 79.76 27.0755 79.2587 27.483C78.7586 27.8941 78.4326 28.4307 78.2795 29.0954C78.2035 29.4054 78.1626 29.6579 78.1626 29.8576V31.7377C78.1626 32.5562 78.4139 33.2479 78.9116 33.8139C79.4118 34.3764 80.0614 34.6606 80.863 34.6606C81.8025 34.6606 82.5328 34.2954 83.054 33.5708C83.5775 32.8439 83.8392 31.8857 83.8392 30.6949ZM109.055 26.9863H106.309V32.4576C106.309 33.8492 106.793 34.5432 107.763 34.5432C108.208 34.5432 108.577 34.5056 108.87 34.4269L108.939 36.3282C108.448 36.5126 107.802 36.6053 107.001 36.6053C106.017 36.6053 105.248 36.3035 104.693 35.6999C104.141 35.0963 103.863 34.0852 103.863 32.6619V26.9816H102.227V25.1027H103.863V23.0393L106.309 22.2971V25.1027H109.055V26.9863ZM119.943 34.9155C120.927 33.8034 121.42 32.3812 121.42 30.6491C121.42 28.9627 120.945 27.5887 119.989 26.5248C118.989 25.4279 117.667 24.8784 116.022 24.8784C114.315 24.8784 112.957 25.435 111.949 26.5483C110.942 27.6604 110.438 29.0907 110.438 30.837C110.438 32.5057 110.926 33.8891 111.903 34.9871C112.88 36.0828 114.19 36.6312 115.837 36.6312C117.545 36.6312 118.914 36.0604 119.943 34.9155ZM118.838 30.7066C118.838 29.6744 118.616 28.7889 118.171 28.0479C117.648 27.1531 116.901 26.7056 115.932 26.7056C114.934 26.7056 114.169 27.1531 113.648 28.0479C113.201 28.7889 112.979 29.6896 112.979 30.7536C112.979 31.787 113.201 32.6748 113.648 33.4135C114.186 34.3083 114.938 34.7557 115.911 34.7557C116.863 34.7557 117.61 34.2989 118.15 33.3912C118.608 32.6325 118.838 31.7412 118.838 30.7066ZM128.736 27.24C129 27.239 129.262 27.2622 129.522 27.3092L129.519 24.9206C129.335 24.8913 129.127 24.8748 128.896 24.8748C128.247 24.8758 127.616 25.0875 127.096 25.4784C126.528 25.9259 126.114 26.5236 125.85 27.2646H125.781L125.69 25.1085H123.52C123.571 26.2904 123.595 27.4733 123.593 28.6562V36.3763H126.084V30.4635C126.084 29.5675 126.292 28.8253 126.706 28.2381C127.182 27.5711 127.86 27.24 128.736 27.24ZM140.663 30.2087C140.67 30.5893 140.639 30.9696 140.572 31.3443H133.098C133.126 32.4576 133.489 33.3101 134.183 33.8973C134.813 34.4211 135.627 34.6841 136.627 34.6841C137.734 34.6841 138.743 34.508 139.651 34.1521L140.042 35.889C138.981 36.354 137.728 36.5854 136.283 36.5854C134.544 36.5854 133.179 36.071 132.186 35.0446C131.195 34.0171 130.698 32.6361 130.698 30.9062C130.698 29.2082 131.16 27.7931 132.084 26.6645C133.052 25.4597 134.359 24.8572 136.004 24.8572C137.62 24.8572 138.844 25.4597 139.675 26.6645C140.333 27.6193 140.663 28.803 140.663 30.2087ZM137.804 27.6345C138.142 28.1759 138.305 28.8159 138.288 29.5593L133.1 29.5569C133.175 28.8018 133.422 28.1512 133.837 27.6099C134.342 26.9288 135.005 26.5894 135.82 26.5894C136.709 26.5894 137.373 26.937 137.804 27.6345Z" fill="white"/>
<path fill-rule="evenodd" clip-rule="evenodd" d="M82.1705 16.3165H80.945V8.02368H82.1705V16.3165ZM50.1467 16.2924C50.6456 16.3515 51.2449 16.3864 51.9376 16.3864C54.8734 16.3864 56.4272 14.9135 56.4272 12.187C56.4272 9.82328 55.1117 8.37324 52.2554 8.37324C51.5494 8.37115 50.8444 8.42596 50.1467 8.53716V16.2924ZM51.3699 9.44962C51.6421 9.39176 51.9703 9.36765 52.3559 9.36765C54.1701 9.36765 55.1339 10.3862 55.1339 12.2219C55.1339 14.2807 54.0685 15.38 52.197 15.38C51.7998 15.38 51.5171 15.3691 51.3699 15.345V9.44962ZM60.5265 16.4455C58.9167 16.4455 57.8735 15.2052 57.8735 13.5213C57.8735 11.7663 58.9389 10.5152 60.6176 10.5152C62.2041 10.5152 63.2707 11.6964 63.2707 13.4285C63.2707 15.2052 62.1714 16.4455 60.5265 16.4455ZM59.1223 13.4852C59.1223 12.2919 59.6889 11.4385 60.5733 11.4385C61.4342 11.4385 62.0008 12.3039 62.0008 13.461C62.0008 14.5965 61.4226 15.5089 60.5616 15.5089C59.7006 15.5089 59.1223 14.6556 59.1223 13.4852ZM72.4507 10.6321L70.7276 16.3165H69.6049L68.8911 13.848C68.7136 13.2441 68.5658 12.6314 68.4483 12.0122H68.425C68.335 12.6318 68.1645 13.2525 67.9834 13.848L67.224 16.3165H66.0897L64.4682 10.6321H65.7263L66.3502 13.3345C66.4974 13.9781 66.6212 14.5856 66.724 15.1594H66.7474C66.8373 14.6809 66.9845 14.083 67.2007 13.3465L67.9834 10.6333H68.9811L69.7299 13.2887C69.911 13.9323 70.0582 14.5639 70.1727 15.1606H70.2054C70.2848 14.576 70.4098 13.9552 70.5792 13.2887L71.2486 10.6333L72.4507 10.6321ZM77.5699 16.3165H78.7943L78.7954 12.9126C78.7954 11.4276 78.0361 10.5152 76.8795 10.5152C76.1307 10.5152 75.4624 10.9009 75.133 11.5084H75.0991L75.0419 10.6309H73.9648C73.9986 11.2155 74.0103 11.7543 74.0103 12.2569V16.3165H75.2346V12.9355C75.2346 12.187 75.7335 11.5433 76.4589 11.5433C77.1961 11.5433 77.5699 12.0472 77.5699 13.0524V16.3165ZM83.9812 13.5213C83.9812 15.2052 85.0256 16.4455 86.6343 16.4455C88.278 16.4455 89.3785 15.2052 89.3773 13.4285C89.3773 11.6964 88.3119 10.5152 86.7243 10.5152C85.0467 10.5152 83.9812 11.7663 83.9812 13.5213ZM86.6799 11.4385C85.7955 11.4385 85.2289 12.2919 85.2289 13.4852C85.2289 14.6556 85.8084 15.5089 86.667 15.5089C87.5292 15.5089 88.1063 14.5965 88.1063 13.461C88.1074 12.3039 87.542 11.4385 86.6799 11.4385ZM94.1157 15.662L94.2045 16.3165L95.3085 16.3177C95.2536 15.979 95.229 15.5343 95.229 14.9605V12.8668C95.229 11.2986 94.5024 10.5152 93.0631 10.5152C92.3166 10.5152 91.6811 10.6791 91.1717 11.0069L91.4206 11.8374C91.84 11.5566 92.3166 11.4156 92.8598 11.4156C93.6192 11.4156 94.0035 11.7904 94.0035 12.5389V12.6438C91.9626 12.6438 90.7839 13.3694 90.7839 14.7725C90.7839 15.7319 91.4848 16.4455 92.472 16.4455C93.1636 16.4455 93.7091 16.1888 94.083 15.662H94.1157ZM94.0363 13.4852C92.6764 13.4852 91.9942 13.8251 91.9942 14.6314C91.9942 15.2281 92.3458 15.5198 92.8341 15.5198C93.4568 15.5198 94.0363 15.0292 94.0363 14.3627V13.4852ZM101.117 15.4041L101.174 16.3165H102.264C102.231 15.8489 102.219 15.3342 102.219 14.7845V8.02368H100.993V11.2866H100.969C100.674 10.7707 100.152 10.5139 99.4148 10.5139C98.0223 10.5139 97.0024 11.7663 97.0024 13.5442C97.0024 15.2402 97.9861 16.4455 99.3144 16.4455C100.14 16.4455 100.731 16.0935 101.083 15.4041H101.117ZM100.993 12.9717C100.993 12.1761 100.483 11.4975 99.7034 11.4975C98.7957 11.4975 98.2407 12.328 98.2407 13.4972C98.2407 14.6435 98.8167 15.4282 99.6788 15.4282C100.449 15.4282 100.993 14.7375 100.993 13.9191V12.9717ZM107.337 13.5213C107.337 15.2052 108.38 16.4455 109.989 16.4455C111.635 16.4455 112.734 15.2052 112.733 13.4285C112.733 11.6964 111.667 10.5152 110.08 10.5152C108.402 10.5152 107.337 11.7663 107.337 13.5213ZM110.034 11.4385C109.151 11.4385 108.584 12.2919 108.584 13.4852C108.584 14.6556 109.163 15.5089 110.022 15.5089C110.885 15.5089 111.462 14.5965 111.462 13.461C111.464 12.3039 110.897 11.4385 110.034 11.4385ZM118.091 16.3165H119.317V12.9114C119.317 11.4264 118.556 10.5139 117.4 10.5139C116.652 10.5139 115.983 10.9009 115.654 11.5084H115.621L115.563 10.6309H114.486C114.52 11.2155 114.532 11.7543 114.532 12.2569V16.3165H115.757V12.9355C115.757 12.187 116.255 11.5433 116.98 11.5433C117.718 11.5433 118.091 12.0472 118.091 13.0524V16.3165ZM127.554 11.5795H126.207V14.3398C126.207 15.0425 126.443 15.3932 126.92 15.3932C127.136 15.3932 127.317 15.3691 127.463 15.3342L127.497 16.2936C127.26 16.3877 126.942 16.4347 126.547 16.4347C125.582 16.4347 125.005 15.885 125.005 14.4458V11.5795H124.201V10.6321H125.005V9.59065L126.207 9.21578V10.6309H127.554V11.5795ZM132.812 16.3165H134.036V12.9355C134.036 11.4493 133.323 10.5139 132.157 10.5139C131.444 10.5139 130.886 10.8189 130.5 11.4385H130.476V8.02368H129.253V16.3165H130.476V12.8897C130.476 11.9893 131.067 11.5445 131.701 11.5445C132.44 11.5445 132.812 12.0592 132.812 13.0765V16.3165ZM140.676 13.7781H137.002C137.025 14.8544 137.715 15.4619 138.738 15.4619C139.281 15.4619 139.781 15.3679 140.223 15.1931L140.413 16.0706C139.892 16.3045 139.279 16.4214 138.565 16.4214C136.842 16.4214 135.822 15.298 135.822 13.5563C135.822 11.8133 136.866 10.5031 138.427 10.5031C139.835 10.5031 140.718 11.5795 140.718 13.2055C140.726 13.3974 140.712 13.5896 140.676 13.7781ZM138.342 11.3806C139.124 11.3806 139.553 12.0002 139.553 12.8777H137.003C137.082 12.0122 137.638 11.3806 138.342 11.3806Z" fill="white"/>
</svg>
