<svg width="32" height="32" viewBox="0 0 32 32" fill="none" xmlns="http://www.w3.org/2000/svg">
<path fill-rule="evenodd" clip-rule="evenodd" d="M16.0187 19.0882C17.7177 19.0882 19.0957 17.7142 19.0957 16.0182C19.0957 14.3232 17.7177 12.9492 16.0187 12.9492C14.3197 12.9492 12.9417 14.3232 12.9417 16.0182C12.9417 17.7142 14.3197 19.0882 16.0187 19.0882Z" fill="white"/>
<path fill-rule="evenodd" clip-rule="evenodd" d="M19.5618 12.8744H21.7248C21.9718 12.8744 22.1728 12.6744 22.1728 12.4284V10.2694C22.1728 10.0234 21.9718 9.82336 21.7248 9.82336H19.5618C19.3148 9.82336 19.1138 10.0234 19.1138 10.2694V12.4284C19.1138 12.6744 19.3148 12.8744 19.5618 12.8744Z" fill="white"/>
<path fill-rule="evenodd" clip-rule="evenodd" d="M24 22.1025C24 23.1505 23.149 24.0005 22.098 24.0005H9.902C8.852 24.0005 8 23.1505 8 22.1025V9.89749C8 8.84949 8.852 8.00049 9.902 8.00049H22.098C23.149 8.00049 24 8.84949 24 9.89749V22.1025ZM16 0.000488281C7.163 0.000488281 0 7.16349 0 16.0005C0 24.8365 7.163 32.0005 16 32.0005C24.837 32.0005 32 24.8365 32 16.0005C32 7.16349 24.837 0.000488281 16 0.000488281Z" fill="white"/>
<path fill-rule="evenodd" clip-rule="evenodd" d="M20.8859 16.0186C20.8859 18.6956 18.7029 20.8746 16.0189 20.8746C13.3349 20.8746 11.1519 18.6956 11.1519 16.0186C11.1519 15.5746 11.2119 15.1436 11.3249 14.7346H9.82788V21.6926C9.82788 21.9396 10.0279 22.1396 10.2749 22.1396H21.7619C22.0099 22.1396 22.2099 21.9396 22.2099 21.6926V14.7346H20.7129C20.8259 15.1436 20.8859 15.5746 20.8859 16.0186Z" fill="white"/>
</svg>
