<svg width="68" height="22" viewBox="0 0 68 22" fill="none" xmlns="http://www.w3.org/2000/svg">
<path d="M43.2928 14.344C40.1968 16.975 38.0508 14.76 38.0108 13.3H46.5798C46.6358 12.967 46.6648 12.625 46.6648 12.276C46.6648 8.88402 43.9148 6.13501 40.5238 6.13501C37.1328 6.13501 34.3828 8.88502 34.3828 12.276C34.3828 15.667 37.1328 18.417 40.5238 18.417C42.6298 18.417 44.4878 17.357 45.5948 15.741C44.8748 15.294 43.7048 14.569 43.2928 14.344ZM40.5228 8.72401C41.8188 8.72401 42.8948 9.71202 43.0358 10.972H38.0108C38.1518 9.71202 39.2278 8.72401 40.5228 8.72401Z" fill="white"/>
<path d="M31.2549 6.56506L28.8179 12.8631L26.3799 6.56506H22.5369L27.5569 18.0331H30.0789L35.0989 6.56506H31.2549Z" fill="white"/>
<path d="M53.4417 6.33997C53.3787 6.34597 53.3157 6.35297 53.2497 6.36197C51.8207 6.55397 51.0097 7.46497 51.0097 7.46497L50.6127 6.56597H47.6567V18.034H51.1207V12.785V12.636C51.1297 12.168 51.1417 10.911 52.4337 10.024C53.2737 9.44797 54.2327 9.53397 54.9307 9.72997L53.4417 6.33997Z" fill="white"/>
<path d="M63.5569 6.56506L61.1189 12.8631L58.6819 6.56506H54.8389L59.8579 18.0331H62.3799L67.3999 6.56506H63.5569Z" fill="white"/>
<path d="M18.1211 8.26404L10.4181 14.884C8.44607 16.581 8.19707 19.531 9.82807 21.537L17.5311 14.917C19.5031 13.22 19.7511 10.27 18.1211 8.26404Z" fill="white"/>
<path d="M9.43501 13.741L17.139 7.11601C19.111 5.41901 19.36 2.46901 17.729 0.463013L6.21202 10.371C4.24002 12.068 3.99102 15.018 5.62202 17.024L7.25901 18.925C7.23901 18.608 7.24101 18.287 7.27001 17.964C7.41401 16.319 8.18301 14.819 9.43501 13.741Z" fill="white"/>
<path d="M5.30202 9.31198L7.50902 7.41299C9.43802 5.70999 9.67302 2.792 8.05502 0.802002L2.26402 5.78599C0.292019 7.48299 0.0430197 10.433 1.67402 12.439L3.11002 14.107C3.11002 13.919 3.11702 13.731 3.13302 13.542C3.27702 11.894 4.04702 10.392 5.30202 9.31198Z" fill="white"/>
</svg>
