<svg width="103" height="30" viewBox="0 0 103 30" fill="none" xmlns="http://www.w3.org/2000/svg">
<path fill-rule="evenodd" clip-rule="evenodd" d="M53.1914 18.2531C53.2483 20.329 56.2938 23.4783 60.7014 19.7375C61.2801 20.0574 62.9507 21.0882 63.9744 21.7252C61.459 25.4064 56.5744 26.6016 52.6434 24.4977C48.7125 22.3939 46.9976 17.6666 48.6655 13.5317C50.3333 9.39689 54.8481 7.18241 59.1387 8.39475C63.4293 9.60709 66.1176 13.8569 65.3749 18.2531H53.1914ZM60.336 14.9432C60.1277 13.1262 58.5925 11.7527 56.7637 11.747C56.7639 11.747 56.7642 11.747 56.7644 11.747H56.763C56.7632 11.747 56.7635 11.747 56.7637 11.747C54.9349 11.7527 53.3998 13.1262 53.1914 14.9432H60.336Z" fill="#15153A"/>
<path d="M43.5857 8.67725L40.1208 17.6303L36.6544 8.67725H31.1904L38.3279 24.9825H41.9137L49.0511 8.67725H43.5857Z" fill="#15153A"/>
<path d="M75.1311 8.35742C75.0416 8.36595 74.952 8.37591 74.8581 8.3887C73.6533 8.54519 72.5338 9.09495 71.6733 9.95268L71.1046 8.67306H66.906V24.9825H71.8311V17.3048C71.8439 16.6394 71.861 14.8522 73.6979 13.5911C74.8923 12.7721 76.2572 12.8944 77.2525 13.1731L75.1311 8.35742Z" fill="#15153A"/>
<path d="M89.5127 8.67725L86.0478 17.6303L82.5814 8.67725H77.1174L84.2549 24.9825H87.8392L94.9767 8.67725H89.5127Z" fill="#15153A"/>
<path d="M24.9118 11.0901L13.9639 20.5024C11.1703 22.9088 10.7985 27.1012 13.1251 29.9617L24.0729 20.5493C26.8665 18.1429 27.2383 13.9506 24.9118 11.0901Z" fill="url(#paint0_linear)"/>
<path d="M12.5635 18.8801L23.5113 9.46066C26.3076 7.05576 26.682 2.86217 24.3559 0L7.98101 14.0872C5.1874 16.4936 4.81562 20.686 7.14214 23.5464L9.46963 26.2479C9.43995 25.7927 9.4447 25.336 9.48385 24.8815C9.68336 22.5545 10.7894 20.3991 12.5635 18.8801Z" fill="url(#paint1_linear)"/>
<path d="M6.68285 12.5829L9.82076 9.8815C12.5589 7.46471 12.9027 3.3181 10.5999 0.483398L2.36626 7.56823C-0.427343 9.97464 -0.79913 14.167 1.5274 17.0275L3.5691 19.399C3.5691 19.1317 3.57906 18.8644 3.6018 18.5957C3.80013 16.2648 4.9067 14.1053 6.68285 12.5829Z" fill="url(#paint2_linear)"/>
<path d="M98.0317 8.6731V9.2481H97.2995V11.6731H96.7597V9.2481H96.0317V8.6731H98.0317Z" fill="#15153A"/>
<path d="M99.7299 8.6731L100.537 10.507L101.337 8.6731H102.032V11.6731H101.47V9.64988L100.738 11.3695H100.331L99.5965 9.65167V11.6731H99.0317V8.6731H99.7299Z" fill="#15153A"/>
<defs>
<linearGradient id="paint0_linear" x1="11.5871" y1="28.9253" x2="25.6408" y2="29.5758" gradientUnits="userSpaceOnUse">
<stop stop-color="#333399"/>
<stop offset="1" stop-color="#FF00CC"/>
</linearGradient>
<linearGradient id="paint1_linear" x1="7.2829" y1="24.1438" x2="26.4161" y2="24.1438" gradientUnits="userSpaceOnUse">
<stop stop-color="#333399"/>
<stop offset="1" stop-color="#FF00CC"/>
</linearGradient>
<linearGradient id="paint2_linear" x1="1.19754" y1="18.3111" x2="12.7326" y2="18.3111" gradientUnits="userSpaceOnUse">
<stop stop-color="#333399"/>
<stop offset="1" stop-color="#FF00CC"/>
</linearGradient>
</defs>
</svg>
